<svg id="icons" xmlns="http://www.w3.org/2000/svg" xmlns:xlink="http://www.w3.org/1999/xlink" viewBox="225 224.5 161 161"><defs><style>.cls-1{fill:#201f2d;}.cls-18,.cls-2,.cls-4,.cls-7{fill:#ffedd2;}.cls-3{fill:#ffc85a;}.cls-4{opacity:0.7;}.cls-5{fill:#f99d23;}.cls-6{fill:#c62606;}.cls-7{stroke:#201f2d;stroke-miterlimit:10;stroke-width:2px;}.cls-8{fill:#ffce61;}.cls-9{fill:#8c8b94;}.cls-10{fill:#5a5966;}.cls-11{fill:#36353d;}.cls-12{fill:#fff;opacity:0.3;}.cls-13{fill:#fc5d42;}.cls-14{fill:#8c1703;}.cls-15{fill:#ffd469;}.cls-16{opacity:0.4;fill:url(#linear-gradient);}.cls-17{fill:url(#linear-gradient-2);}.cls-18{opacity:0.6;}.cls-19{fill:#6f6e7a;}.cls-20{opacity:0.2;}</style><linearGradient id="linear-gradient" x1="661.01" y1="78.18" x2="726.41" y2="111.5" gradientUnits="userSpaceOnUse"><stop offset="0" stop-color="#f99d23"/><stop offset="0.59" stop-color="#f99d23"/><stop offset="0.9" stop-color="#201f2d"/></linearGradient><linearGradient id="linear-gradient-2" x1="621.48" y1="85.44" x2="703.35" y2="127.15" gradientUnits="userSpaceOnUse"><stop offset="0" stop-color="#f99d23"/><stop offset="0.72" stop-color="#f99d23"/><stop offset="1" stop-color="#201f2d"/></linearGradient></defs><title>harry_potter_icons_svg</title><g id="_4" data-name="4"><path class="cls-2" d="M385,305a79.49,79.49,0,0,1-142.91,48c-0.5-.66-1-1.32-1.46-2s-0.93-1.32-1.37-2-0.88-1.32-1.29-2a79.61,79.61,0,0,1,0-84c0.42-.67.85-1.34,1.29-2s0.9-1.34,1.38-2,1-1.34,1.47-2A79.49,79.49,0,0,1,385,305Z"/><path class="cls-6" d="M362,273.92v62.16A14.93,14.93,0,0,1,347.08,351H240.63c-0.47-.66-0.93-1.32-1.37-2s-0.88-1.32-1.29-2a79.61,79.61,0,0,1,0-84c0.42-.67.85-1.34,1.29-2s0.9-1.34,1.38-2H347.08A14.93,14.93,0,0,1,362,273.92Z"/><path class="cls-1" d="M347.08,257h-105c-0.51.66-1,1.33-1.47,2s-0.94,1.33-1.38,2h107.8A12.91,12.91,0,0,1,360,273.92v62.16A12.91,12.91,0,0,1,347.08,349H239.26c0.44,0.68.9,1.34,1.37,2s1,1.34,1.46,2h105A16.94,16.94,0,0,0,364,336.08V273.92A16.94,16.94,0,0,0,347.08,257Z"/><path class="cls-3" d="M347.08,259H240.66c-0.48.66-.94,1.33-1.38,2s-0.87,1.33-1.29,2H347.08A10.93,10.93,0,0,1,358,273.92v62.16A10.93,10.93,0,0,1,347.08,347H238c0.41,0.68.84,1.34,1.29,2s0.9,1.34,1.37,2H347.08A14.93,14.93,0,0,0,362,336.08V273.92A14.93,14.93,0,0,0,347.08,259Z"/><circle class="cls-2" cx="305" cy="305" r="37"/><path class="cls-1" d="M285.62,323.28v-1.9a14.89,14.89,0,0,0,3-.32,11.28,11.28,0,0,0,2.89-1,9.5,9.5,0,0,0,2.39-1.73,11.44,11.44,0,0,0,2.11-2.84,16,16,0,0,0,1.33-3.5,29.46,29.46,0,0,0,.73-4l-0.26-.11a13.82,13.82,0,0,1-8.72,2.67,10,10,0,0,1-5.3-1.33,8.25,8.25,0,0,1-3.26-3.73,13.43,13.43,0,0,1-1.08-5.59,12,12,0,0,1,1.65-6.28,10.8,10.8,0,0,1,4.74-4.24,16.8,16.8,0,0,1,7.32-1.48,13.69,13.69,0,0,1,7.18,1.76,10.71,10.71,0,0,1,4.36,5.11,20.53,20.53,0,0,1,1.44,8.12,26.49,26.49,0,0,1-2.25,11.39,17.15,17.15,0,0,1-6.54,7.43A22.51,22.51,0,0,1,287,324.84Zm6.55-16.33a8.49,8.49,0,0,0,1.82-.19,6.65,6.65,0,0,0,1.6-.57,7.41,7.41,0,0,0,1.4-.93,4.22,4.22,0,0,0,.86-0.89,3.33,3.33,0,0,0,.36-1,8.77,8.77,0,0,0,.15-1.8,18.14,18.14,0,0,0-1.39-7.94,4.38,4.38,0,0,0-4.06-2.76,5.25,5.25,0,0,0-2.63.61,4.79,4.79,0,0,0-1.74,1.72,7.87,7.87,0,0,0-1,2.66,18.39,18.39,0,0,0-.29,3.4Q287.28,306.94,292.17,306.95Zm20.22-17.84v-2.6a13,13,0,0,1,5-1.18,7,7,0,0,1,2.38.37,3.46,3.46,0,0,1,1.6,1.09,2.72,2.72,0,0,1,.56,1.74,3.47,3.47,0,0,1-.37,1.64,3.81,3.81,0,0,1-1,1.23,9.26,9.26,0,0,1-1.75,1v0.1a5,5,0,0,1,1.74.64,3.48,3.48,0,0,1,1.71,3.09,4.19,4.19,0,0,1-.62,2.26,4.11,4.11,0,0,1-1.88,1.56,7.45,7.45,0,0,1-3.06.56,13.15,13.15,0,0,1-2.43-.22,9.09,9.09,0,0,1-2.08-.63V297h2a3.81,3.81,0,0,0,.9,1.81,2.09,2.09,0,0,0,1.52.56q2.32,0,2.32-2.87a3,3,0,0,0-.82-2.3,3.55,3.55,0,0,0-2.48-.76h-0.87v-1.25a4.75,4.75,0,0,0,2.89-.89,3.45,3.45,0,0,0,.49-4.2,1.72,1.72,0,0,0-1.43-.62,2,2,0,0,0-1.8,1.06,4.38,4.38,0,0,0-.52,1.53h-2Zm3.67,33.52a3.16,3.16,0,0,0,.63-0.24,0.87,0.87,0,0,0,.36-0.34,1.42,1.42,0,0,0,.15-0.55c0-.23,0-0.51,0-0.85V319h-5.87v-1.18l6.65-9.51h2.46v9.31h0.34a2.74,2.74,0,0,0,.76-0.07,0.79,0.79,0,0,0,.38-0.27,2.07,2.07,0,0,0,.3-0.7h1.15L323.27,319h-2.79v1.63a6.09,6.09,0,0,0,.05.93,1.4,1.4,0,0,0,.19.55,0.82,0.82,0,0,0,.36.31,4.28,4.28,0,0,0,.58.2v0.72h-5.6v-0.72Zm-2.57-5h3.75v-2.51q0-1.58.11-3.32h-0.11l-3.75,5.64v0.19ZM325,304H310v2h15v-2Zm-19.5,81.56A80.53,80.53,0,1,1,386,305,80.61,80.61,0,0,1,305.5,385.56Zm0-159.07A78.53,78.53,0,1,0,384,305,78.61,78.61,0,0,0,305.5,226.49Z"/></g></svg>